#!OML:ASF H:\Terrain\Patient Classification 1\PLAYGROUND\JustinFriday\JustinFriday.ASF
:FULLY-SPECIFIED
:DEGREES
3981
root 13.8664 17.5883 18.6453 176.282 -30.8998 -173.271
lowerback 14.4386 2.5104 3.4218
upperback 3.28448 3.60649 5.4697
thorax -4.74599 1.53208 3.20104
lowerneck -7.61346 6.20791 0.629408
upperneck -2.81019 7.96936 -9.65711
head 0.876778 3.72172 -2.93265
rclavicle -4.6118e-014 -6.52014e-014
rhumerus -59.1207 -30.3996 -57.6244
rradius 31.5273
rwrist -151.709
rhand -43.6144 26.7312
rfingers 7.12502
rthumb -16.45 357.409
lclavicle -4.6118e-014 -6.52014e-014
lhumerus -53.8094 12.6317 65.6206
lradius 21.3642
lwrist -11.2809
lhand 21.364 1.5343
lfingers 7.12502
lthumb 45.8035 24.7102
rfemur -23.5545 9.24455 16.8653
rtibia 30.6715
rfoot -6.15946 12.9187
rtoes -0.20424
lfemur 2.33498 -18.2992 -4.74111
ltibia 37.7148
lfoot -186.462 180.775
ltoes -11.3838
3982
root 13.9214 17.5785 18.5497 175.831 -32.0501 -172.827
lowerback 14.644 2.50228 3.91915
upperback 3.36892 3.66051 5.60341
thorax -4.74541 1.5422 3.04966
lowerneck -7.54301 6.144 0.664078
upperneck -2.84165 7.87735 -9.83158
head 0.860411 3.67583 -3.004
rclavicle -1.18078e-013 2.06736e-014
rhumerus -57.0488 -28.9379 -60.0511
rradius 31.336
rwrist -151.616
rhand -43.2702 25.7423
rfingers 7.12502
rthumb -16.1186 356.393
lclavicle -1.18078e-013 2.06736e-014
lhumerus -52.0381 12.4142 65.7035
lradius 21.9911
lwrist -12.3719
lhand 18.9869 2.23462
lfingers 7.12502
lthumb 43.5901 26.2687
rfemur -23.1814 9.36823 17.5708
rtibia 31.3425
rfoot -6.68524 11.2517
rtoes -0.210303
lfemur 1.78222 -18.8655 -4.16301
ltibia 38.7763
lfoot -186.45 181.186
ltoes -8.7732
3983
root 13.9746 17.5874 18.4541 175.197 -33.1017 -171.853
lowerback 14.6499 2.50481 4.72826
upperback 3.42036 3.75812 5.90631
thorax -4.6608 1.56589 2.90246
lowerneck -7.39733 6.07172 0.558451
upperneck -2.89481 7.78287 -9.84781
head 0.808658 3.63635 -2.99924
rclavicle -2.26615e-014 -9.70069e-014
rhumerus -55.0858 -27.4311 -62.1093
rradius 30.9719
rwrist -151.065
rhand -42.7764 23.7537
rfingers 7.12502
rthumb -15.643 354.366
lclavicle -2.26615e-014 -9.70069e-014
lhumerus -50.424 12.4592 65.7916
lradius 22.7842
lwrist -14.0232
lhand 16.9397 0.838684
lfingers 7.12502
lthumb 41.6743 25.5369
rfemur -22.8338 9.80939 18.6709
rtibia 31.751
rfoot -6.95562 9.49116
rtoes -0.0493101
lfemur 0.998258 -19.1763 -3.01341
ltibia 40.0162
lfoot -186.289 181.407
ltoes -5.75109
3984
root 14.015 17.5996 18.3549 174.678 -34.2964 -170.951
lowerback 14.3587 2.54694 5.47456
upperback 3.39095 3.89167 6.16461
thorax -4.49994 1.61722 2.74591
lowerneck -7.24202 5.9095 0.515428
upperneck -2.7435 7.59085 -9.73408
head 0.812179 3.54864 -2.96343
rclavicle 6.06293e-014 9.54166e-014
rhumerus -53.943 -26.4824 -63.1377
rradius 31.0367
rwrist -150.775
rhand -42.6576 23.0743
rfingers 7.12502
rthumb -15.5286 353.678
lclavicle 6.06293e-014 9.54166e-014
lhumerus -48.8512 11.59 66.7971
lradius 23.9382
lwrist -14.5009
lhand 12.8811 -0.123333
lfingers 7.12502
lthumb 37.8536 25.7156
rfemur -22.527 10.1529 19.5524
rtibia 31.9745
rfoot -7.26122 7.8659
rtoes -0.31812
lfemur -0.0162199 -19.359 -1.96272
ltibia 41.3391
lfoot -185.828 181.564
ltoes -3.1372
3985
root 14.0676 17.6095 18.2574 174.45 -35.6837 -170.925
lowerback 14.3772 2.67947 5.41291
upperback 3.3314 4.08369 6.12324
thorax -4.57801 1.71938 2.69989
lowerneck -7.19128 5.69174 0.829926
upperneck -2.43022 7.32283 -9.66208
head 0.900452 3.41603 -3.00454
rclavicle -3.35946e-014 -7.95139e-014
rhumerus -53.7027 -27.2017 -62.4546
rradius 31.459
rwrist -151.668
rhand -42.8906 26.0238
rfingers 7.12502
rthumb -15.753 356.645
lclavicle -3.35946e-014 -7.95139e-014
lhumerus -47.3328 10.7501 67.3638
lradius 25.4063
lwrist -15.0899
lhand 9.35809 -1.12685
lfingers 7.12502
lthumb 34.5173 25.5406
rfemur -22.0361 10.4521 19.6789
rtibia 32.1877
rfoot -7.4531 6.21189
rtoes -0.26356
lfemur -0.957091 -19.5078 -1.7354
ltibia 42.6766
lfoot -185.101 181.982
ltoes -0.326279
3986
root 14.1101 17.6229 18.166 174.45 -37.146 -171.347
lowerback 14.3751 2.64937 5.10588
upperback 3.32678 4.01899 5.98461
thorax -4.59435 1.70237 2.73407
lowerneck -7.12872 5.59444 1.08729
upperneck -2.22217 7.20409 -9.70298
head 0.963639 3.35661 -3.06943
rclavicle 3.26007e-014 4.29375e-014
rhumerus -52.3644 -26.6412 -63.3402
rradius 31.1118
rwrist -150.135
rhand -41.2772 24.4336
rfingers 7.12502
rthumb -14.1988 354.939
lclavicle 3.26007e-014 4.29375e-014
lhumerus -46.1958 10.5808 67.7151
lradius 27.3385
lwrist -15.2005
lhand 5.58309 -1.62756
lfingers 7.12502
lthumb 30.926 25.788
rfemur -21.5932 10.605 19.3711
rtibia 32.5613
rfoot -8.04923 4.60651
rtoes -0.573477
lfemur -1.83821 -19.8248 -2.11647
ltibia 44.0426
lfoot -184.532 183.009
ltoes 2.67548
3987
root 14.1586 17.6237 18.0861 174.201 -38.5389 -171.06
lowerback 14.303 2.47008 5.25327
upperback 3.24265 3.81083 6.10507
thorax -4.63945 1.59808 2.81876
lowerneck -7.03572 5.58343 1.11925
upperneck -2.05068 7.20641 -9.83236
head 1.01076 3.35524 -3.11972
rclavicle 1.28812e-013 -7.95139e-015
rhumerus -50.7417 -26.2782 -63.4114
rradius 30.2511
rwrist -148.421
rhand -39.9267 23.6677
rfingers 7.12502
rthumb -12.8971 354.086
lclavicle 1.28812e-013 -7.95139e-015
lhumerus -45.4716 10.9753 68.0755
lradius 29.6112
lwrist -14.457
lhand 1.63398 -2.38936
lfingers 7.12502
lthumb 27.1545 25.677
rfemur -21.4185 10.454 19.7319
rtibia 32.9381
rfoot -8.75683 3.13828
rtoes -2.48941
lfemur -2.98282 -19.8374 -1.65969
ltibia 45.3156
lfoot -184.231 183.488
ltoes 6.44237
3988
root 14.2183 17.6174 18.0069 174.221 -39.8835 -170.543
lowerback 13.8564 2.36058 5.28765
upperback 3.01564 3.67124 6.34226
thorax -4.64835 1.53372 3.08792
lowerneck -7.10829 5.55209 1.05453
upperneck -1.69743 7.20706 -9.88951
head 1.1377 3.34475 -3.12234
rclavicle -6.16232e-014 9.54166e-014
rhumerus -49.2859 -26.9217 -62.3452
rradius 29.0535
rwrist -146.267
rhand -39.0027 23.6036
rfingers 7.12502
rthumb -12.0063 353.968
lclavicle -6.16232e-014 9.54166e-014
lhumerus -44.8972 10.9746 68.8282
lradius 32.1696
lwrist -12.9359
lhand -2.17026 -3.64664
lfingers 7.12502
lthumb 23.5101 24.9367
rfemur -21.7257 9.60247 20.3414
rtibia 33.2122
rfoot -9.0318 2.36779
rtoes -3.78965
lfemur -4.65438 -19.3637 -0.685564
ltibia 46.4742
lfoot -183.995 183.744
ltoes 9.05024
3989
root 14.2504 17.6562 17.9216 174.304 -41.8054 -171.018
lowerback 13.7614 2.07352 4.80589
upperback 2.93556 3.24544 6.32966
thorax -4.70207 1.34109 3.42032
lowerneck -7.32586 5.53474 0.766383
upperneck -1.25367 7.25329 -9.65526
head 1.29742 3.35729 -2.97941
rclavicle 1.74931e-014 -2.70347e-014
rhumerus -48.1774 -27.4059 -61.266
rradius 28.5569
rwrist -144.842
rhand -38.3206 22.1261
rfingers 7.12502
rthumb -11.3485 352.453
lclavicle 1.74931e-014 -2.70347e-014
lhumerus -44.3397 10.5313 69.8377
lradius 34.9069
lwrist -11.0066
lhand -5.60062 -4.90725
lfingers 7.12502
lthumb 20.2162 24.0607
rfemur -21.047 9.34469 19.9219
rtibia 33.2404
rfoot -8.96597 0.718078
rtoes -3.02096
lfemur -5.64095 -19.7317 -1.20131
ltibia 47.3782
lfoot -183.544 185.209
ltoes 10.0931
3990
root 14.2635 17.6997 17.8286 174.451 -43.9254 -172.029
lowerback 13.7891 1.69259 4.14727
upperback 2.9484 2.67173 6.13588
thorax -4.71148 1.08152 3.6837
lowerneck -7.57673 5.51987 0.299056
upperneck -0.824702 7.31374 -9.21685
head 1.44009 3.3812 -2.7354
rclavicle -1.86858e-014 5.08889e-014
rhumerus -47.3741 -27.9994 -60.0028
rradius 28.153
rwrist -143.87
rhand -37.2057 22.2066
rfingers 7.12502
rthumb -10.2731 352.478
lclavicle -1.86858e-014 5.08889e-014
lhumerus -43.7815 9.76039 70.9036
lradius 37.6849
lwrist -8.87752
lhand -8.79736 -6.06675
lfingers 7.12502
lthumb 17.1415 23.1971
rfemur -19.7803 8.46307 19.1342
rtibia 33.0326
rfoot -9.10959 -0.51466
rtoes -2.66496
lfemur -6.12693 -20.267 -2.39361
ltibia 48.1631
lfoot -183.1 186.97
ltoes 13.3125
3991
root 14.2938 17.7293 17.75 174.343 -45.2906 -172.463
lowerback 13.9937 1.59452 3.8614
upperback 2.94768 2.52764 6.03541
thorax -4.82838 1.01983 3.76041
lowerneck -7.8249 5.43046 -0.077557
upperneck -0.499825 7.25722 -8.80243
head 1.54819 3.34944 -2.52421
rclavicle 9.81996e-014 -4.77083e-015
rhumerus -46.902 -28.0331 -59.1624
rradius 28.6293
rwrist -144.44
rhand -36.5775 21.9732
rfingers 7.12502
rthumb -9.66699 352.215
lclavicle 9.81996e-014 -4.77083e-015
lhumerus -43.1634 8.55426 72.0467
lradius 40.5631
lwrist -6.98578
lhand -12.2939 -6.75939
lfingers 7.12502
lthumb 13.7738 22.7647
rfemur -18.7089 7.89499 18.9552
rtibia 32.5658
rfoot -9.10069 -1.40862
rtoes -3.48545
lfemur -6.47181 -20.063 -2.97565
ltibia 48.8466
lfoot -182.85 188.744
ltoes 16.582
3992
root 14.3469 17.7552 17.6995 173.647 -46.2618 -171.154
lowerback 13.9264 1.63078 4.81041
upperback 2.69248 2.73086 6.21213
thorax -5.03142 1.10117 3.37942
lowerneck -7.77997 5.23049 -0.128085
upperneck -0.404858 7.00295 -8.6148
head 1.54783 3.22921 -2.46467
rclavicle -1.3895e-013 -2.22639e-014
rhumerus -48.5105 -26.9701 -59.0487
rradius 33.5917
rwrist -146.601
rhand -36.6823 26.3297
rfingers 7.12502
rthumb -9.76813 356.576
lclavicle -1.3895e-013 -2.22639e-014
lhumerus -42.5636 7.11998 73.1698
lradius 43.5302
lwrist -5.39693
lhand -15.9787 -8.07183
lfingers 7.12502
lthumb 10.2207 21.6599
rfemur -18.5421 7.87371 20.0667
rtibia 31.9814
rfoot -8.63926 -2.42273
rtoes -3.56706
lfemur -7.73658 -19.2646 -1.7438
ltibia 49.5803
lfoot -182.649 190.637
ltoes 18.2118
3993
root 14.3948 17.7807 17.6467 172.94 -47.5049 -170.279
lowerback 13.9667 1.68989 5.48104
upperback 2.51221 2.93149 6.2506
thorax -5.2168 1.18642 3.00727
lowerneck -7.4171 4.94413 -0.0724211
upperneck -0.571949 6.59617 -8.47889
head 1.40707 3.04799 -2.45571
rclavicle -4.65156e-014 -1.43125e-014
rhumerus -47.0838 -29.7757 -56.1456
rradius 30.1421
rwrist -144.422
rhand -34.7148 25.6307
rfingers 7.12502
rthumb -7.86954 355.797
lclavicle -4.65156e-014 -1.43125e-014
lhumerus -41.8982 5.26691 74.4651
lradius 46.6372
lwrist -3.69357
lhand -18.5736 -9.28989
lfingers 7.12502
lthumb 7.7167 20.5493
rfemur -17.9816 7.81007 20.7877
rtibia 31.3331
rfoot -8.19511 -3.68611
rtoes -3.71398
lfemur -8.69096 -18.5376 -1.07109
ltibia 50.2165
lfoot -182.993 191.496
ltoes 20.498
3994
root 14.4312 17.804 17.5879 172.097 -48.8139 -169.673
lowerback 13.9861 1.73905 5.86876
upperback 2.58001 3.04486 6.26299
thorax -5.13572 1.23497 2.78272
lowerneck -7.11776 4.73172 -0.141323
upperneck -1.01113 6.27408 -8.17426
head 1.18203 2.91666 -2.36436
rclavicle -3.85642e-014 1.11319e-014
rhumerus -46.5408 -30.6233 -54.8291
rradius 29.9618
rwrist -144.435
rhand -33.5731 26.2121
rfingers 7.12502
rthumb -6.76751 356.34
lclavicle -3.85642e-014 1.11319e-014
lhumerus -40.9926 3.58328 75.5846
lradius 49.5308
lwrist -2.62535
lhand -20.6192 -10.4382
lfingers 7.12502
lthumb 5.74202 19.464
rfemur -17.0093 7.64425 21.2965
rtibia 30.6641
rfoot -7.86889 -4.89175
rtoes -3.91605
lfemur -9.15197 -17.8026 -0.869103
ltibia 50.6752
lfoot -183.368 192.956
ltoes 18.214
3995
root 14.4643 17.8296 17.5274 171.331 -50.0054 -169.148
lowerback 13.9728 1.71947 6.12933
upperback 2.66391 3.04445 6.25145
thorax -5.02349 1.23191 2.62523
lowerneck -7.19787 4.60296 -0.0855959
upperneck -1.1761 6.08728 -7.93975
head 1.12714 2.83299 -2.30357
rclavicle 3.598e-014 5.56597e-014
rhumerus -45.8346 -31.2448 -53.7278
rradius 30.0245
rwrist -144.15
rhand -34.5151 34.7642
rfingers 7.12502
rthumb -7.67672 364.923
lclavicle 3.598e-014 5.56597e-014
lhumerus -40.1843 2.88405 75.96
lradius 52.3568
lwrist -4.76462
lhand -20.7797 -11.2796
lfingers 7.12502
lthumb 5.58705 18.6268
rfemur -16.0924 7.40688 21.7369
rtibia 30.0323
rfoot -7.75547 -5.86454
rtoes -4.50419
lfemur -9.46688 -16.9588 -0.795213
ltibia 50.9184
lfoot -184.007 193.068
ltoes 19.8712
